<?xml version="1.0" encoding="UTF-8"?>
<svg version="1.1" viewBox="0 0 1988 2048" width="1280" height="1280" xmlns="http://www.w3.org/2000/svg">
<path transform="translate(1706,117)" d="m0 0h44l41 3 23 3 19 5 23 10 14 8 11 8 12 11 10 11 8 13 7 14 5 15 3 16v27l-3 21-9 36-7 20-11 28-19 39-15 28-12 20-14 22-16 23-13 19-9 11-13 18-14 18-14 17-12 14-8 10-11 12-7 8-16 17-9 10-12 13-6 7-8 7-7 8-3 3h-2l-2 4-12 11-2 3h-2v2l-8 7-12 12-8 7-10 9-15 14-14 13-11 9-10 9-10 8-11 10-10 8-11 9-13 11-16 12-14 11-26 20-13 9-11 8-18 13-12 8-23 16-25 16-15 10-28 17-15 9-24 14-23 13-28 15-22 12-23 11-24 12-25 11-30 13-30 12-35 13-38 13-40 12-56 14-55 11-33 5-52 5-31 2h-54l-40-3-50-6-22-6-18-7-12-7-11-9-7-8-6-12-3-9-1-7v-9l3-13 6-13 9-11 8-8 10-7 14-7 24-8 12-2 11-1 41-1 30-2 37-5 40-7 44-11 28-8 47-16 29-11 38-16 28-13 29-14 42-22 17-10 28-16 23-14 15-10 44-29 23-16 14-10 12-9 21-16 16-12 17-13 16-13 14-11 11-9 14-12 8-7 13-11 15-14 11-9 12-11 8-7 12-11 12-12 8-7 43-43h2l2-4 26-26 2-3h2l2-4 11-11 7-8 11-12 9-11 12-13 18-22 12-14 13-16 12-16 13-18 19-29 10-17 6-14 5-19-34 3-24 4-40 9-45 12-48 15-37 12-43 15-59 22-41 16-47 19-26 11-35 15-25 11-49 22-63 30-44 22-19 10-35 18-18 10-29 16-25 14-22 13-25 15-18 11-17 11-21 13-45 30-16 11-17 12-15 11-11 8-16 12-12 10-16 12-11 9-10 8-13 11-10 9-8 7-10 9-8 7-15 14-7 7-8 7-34 34-9 11-12 14-13 14-8 11-14 18-9 12-12 17-14 21-12 20-15 28-15 31-11 28-9 28-6 23-5 30-3 26-1 17v12l2 25 4 26 6 26 10 30 8 18 9 17 13 21 10 14 14 17 15 16 8 8 8 7 13 11 17 12 18 12 19 11 19 10 25 11 27 10 31 9 34 7 30 4 21 2 22 1h30l39-2 71-7 35-5 57-10 61-14 49-13 48-15 36-12 46-17 28-11 56-24 18-8 16-8 20-9 19-10 35-18 22-12 28-16 44-26 22-14 19-12 45-30 20-14 14-10 38-28 18-13 16-9 16-8 14-5 6-1h13l12 4 10 9 6 10 4 13v22l-4 17-9 22-11 21-13 18-13 16-11 13-13 15-13 14-7 8-14 15-49 49-8 7-12 11-8 7-10 9-11 9-10 9-9 7-11 10-14 11-10 8-12 9-26 20-36 26-16 11-14 10-27 18-16 10-22 14-22 13-29 17-27 15-22 12-39 20-33 16-33 15-45 19-37 14-42 15-38 12-42 12-36 9-42 9-56 10-40 5-45 4-35 2h-55l-40-3-51-6-25-5-39-9-29-9-29-10-29-12-18-8-16-8-22-12-23-14-16-11-19-14-16-13-14-12-13-12-16-15-14-15-11-12-9-11-13-16-13-19-8-11-12-20-11-19-13-25-11-25-12-31-11-33-11-37-1-1v-277l7-20 13-42 11-31 11-28 9-20 9-19 10-19 14-26 14-23 11-17 10-15 11-16 10-14 9-12 10-13 13-16 9-11 12-14 9-11 10-11 9-11 13-13 1-2h2l2-4 43-43 8-7 11-10 11-9 7-7 8-7 15-13 14-12 11-9 16-13 20-15 18-14 19-14 36-26 19-13 36-24 24-15 15-10 17-10 28-17 15-9 28-16 27-15 26-14 23-12 22-12 23-11 19-10 52-25 20-9 71-31 44-18 30-12 34-13 38-14 42-15 38-13 50-16 40-12 49-14 41-11 57-14 55-12 61-12 58-9 39-5 48-4z" fill="#C6C4FE"/>
<path transform="translate(1627,122)" d="m0 0h10v1l-39 5-40 6-56 10-50 10-66 15-67 17-53 15-40 12-45 14-54 18-48 17-35 13-44 17-37 15-29 12-51 22-35 16-30 14-19 9-2-1 16-8 37-18 20-9 71-31 44-18 30-12 34-13 38-14 42-15 38-13 50-16 40-12 49-14 41-11 57-14 55-12 61-12 58-9 39-5z" fill="#FEFEFE"/>
<path transform="translate(1427,1577)" d="m0 0 2 1-7 6-19 14-18 13-17 12-19 13-10 7-20 13-17 11-19 12-22 13-29 17-27 15-22 12-39 20-33 16-33 15-45 19-37 14-42 15-38 12-31 9-4-1 43-13 36-12 34-12 28-11 34-14 32-14 34-16 35-17 33-17 22-12 28-16 29-17 26-16 47-30 20-14 16-11 14-10 18-13z" fill="#FEFEFE"/>
<path transform="translate(1371,924)" d="m0 0 2 1-11 8-25 16-15 10-28 17-15 9-24 14-23 13-28 15-22 12-23 11-24 12-25 11-30 13-30 12-35 13-38 13-13 4-4-1 37-12 33-12 55-22 25-11 35-16 41-20 22-12 21-11 23-13 26-15 28-17 38-24 15-10z" fill="#FEFEFE"/>
<path transform="translate(1202,1473)" d="m0 0 3 1-25 11-28 11-31 12-37 13-46 15-48 13-42 10-39 8h-6v-1l41-9 33-8 46-12 48-15 36-12 46-17 28-11z" fill="#FEFEFE"/>
<path transform="translate(440,592)" d="m0 0 2 1-18 14-12 9-18 14-10 8-16 13-11 9-13 11-11 9-10 9-2-1 8-8 11-9 10-9 11-9 13-11 13-10 34-26z" fill="#FEFEFE"/>
<path transform="translate(1700,1297)" d="m0 0 1 3-10 20-8 12-9 12-11 14-12 14v-3l13-16 14-19 12-18z" fill="#FEFEFE"/>
<path transform="translate(301,705)" d="m0 0 2 1-9 9-8 7-11 11-8 7-29 29v-3l44-44 8-7z" fill="#FEFEFE"/>
<path transform="translate(1637,1218)" d="m0 0 2 1-17 10-19 13-17 12-7 5-2-1 13-10 28-20z" fill="#FEFEFE"/>
<path transform="translate(491,1115)" d="m0 0 4 5 8 11 10 9 11 7 12 6-3 1-16-8-13-10-8-9-5-9z" fill="#FEFEFE"/>
<path transform="translate(1684,1209)" d="m0 0 6 1 8 6 6 7 6 12 1 6-3-4-4-8-8-10-8-7z" fill="#FEFEFE"/>
<path transform="translate(1883,157)" d="m0 0 4 2 12 12 10 14 6 11-1 3-9-15-9-12-11-12z" fill="#FEFEFE"/>
<path transform="translate(1343,657)" d="m0 0 2 1-8 8-11 9-6 6-2-1 9-9 8-7z" fill="#FEFEFE"/>
</svg>
